<?xml version="1.0" encoding="UTF-8" standalone="no"?>
<!-- Created with Inkscape (http://www.inkscape.org/) -->

<svg
   version="1.1"
   id="svg1"
   width="793.70667"
   height="793.70667"
   viewBox="0 0 793.70667 793.70667"
   sodipodi:docname="oblique.svg"
   inkscape:version="1.4.3 (0d15f75, 2025-12-25)"
   xmlns:inkscape="http://www.inkscape.org/namespaces/inkscape"
   xmlns:sodipodi="http://sodipodi.sourceforge.net/DTD/sodipodi-0.dtd"
   xmlns="http://www.w3.org/2000/svg"
   xmlns:svg="http://www.w3.org/2000/svg">
  <defs
     id="defs1">
    <radialGradient
       fx="0"
       fy="0"
       cx="0"
       cy="0"
       r="1"
       gradientUnits="userSpaceOnUse"
       gradientTransform="matrix(4080.55,0,0,-4074.95,2976.38,2976.37)"
       spreadMethod="pad"
       id="radialGradient4">
      <stop
         style="stop-opacity:1;stop-color:#ffffff"
         offset="0"
         id="stop2" />
      <stop
         style="stop-opacity:1;stop-color:#ffffff"
         offset="0.403061"
         id="stop3" />
      <stop
         style="stop-opacity:1;stop-color:#e8eae8"
         offset="1"
         id="stop4" />
    </radialGradient>
  </defs>
  <sodipodi:namedview
     id="namedview1"
     pagecolor="#ffffff"
     bordercolor="#000000"
     borderopacity="0.25"
     inkscape:showpageshadow="2"
     inkscape:pageopacity="0.0"
     inkscape:pagecheckerboard="0"
     inkscape:deskcolor="#d1d1d1"
     inkscape:zoom="1.4842258"
     inkscape:cx="195.38806"
     inkscape:cy="260.40512"
     inkscape:window-width="1920"
     inkscape:window-height="1051"
     inkscape:window-x="-9"
     inkscape:window-y="-9"
     inkscape:window-maximized="1"
     inkscape:current-layer="group-R5"
     inkscape:export-bgcolor="#ff5bff00">
    <inkscape:page
       x="0"
       y="0"
       inkscape:label="1"
       id="page1"
       width="793.70667"
       height="793.70667"
       margin="0"
       bleed="0" />
  </sodipodi:namedview>
  <g
     id="g1"
     inkscape:groupmode="layer"
     inkscape:label="1">
    <g
       id="group-R5">
      <path
         id="path27"
         d="m 1836.81,3843.17 c -1.57,-26.01 -13.63,-288.99 -18.75,-310.71 -5.09,-21.75 5.12,-36.94 17.05,-34.77 11.93,2.17 70.97,16.9 74.35,40.81 3.43,23.88 -3.75,170.39 -3.75,198.65 0,28.25 1.73,165.06 -6.79,171.59 -8.53,6.52 -60.4,-37.33 -62.11,-65.57"
         style="fill:#9969d2;fill-opacity:1;fill-rule:nonzero;stroke:none"
         transform="matrix(0.13333333,0,0,-0.13333333,0,793.70667)" />
      <path
         id="path28"
         d="m 1868.02,4032.05 c 0,0 -6.51,-69.54 2.18,-78.24 8.7,-8.7 67.37,41.29 71.71,54.33 4.35,13.03 33.4,125.69 16.02,103.98 -17.37,-21.74 -31.23,-58.36 -89.91,-80.07"
         style="fill:#9969d2;fill-opacity:1;fill-rule:nonzero;stroke:none"
         transform="matrix(0.13333333,0,0,-0.13333333,0,793.70667)" />
      <path
         id="path29"
         d="m 1877.12,4162.57 c -2.17,-17.39 -10.88,-73.87 0,-76.04 10.85,-2.18 65.22,75.39 71.74,92.76 6.53,17.39 2.88,31.58 -3.64,27.23 -6.51,-4.34 -65.93,-26.57 -68.1,-43.95"
         style="fill:#9969d2;fill-opacity:1;fill-rule:nonzero;stroke:none"
         transform="matrix(0.13333333,0,0,-0.13333333,0,793.70667)" />
      <path
         id="path30"
         d="m 1861.69,4267.36 c -5.81,-11.68 -17.18,-70.02 8.91,-65.67 26.06,4.35 82.33,66.76 79.18,86.55 -3.63,22.71 -83.73,-12.19 -88.09,-20.88"
         style="fill:#9969d2;fill-opacity:1;fill-rule:nonzero;stroke:none"
         transform="matrix(0.13333333,0,0,-0.13333333,0,793.70667)" />
      <path
         id="path31"
         d="m 1825.6,4352.22 c -12.53,-12.32 11.05,-56.52 25.3,-52.28 12.62,3.74 107.95,56.39 101.6,81.81 -5.48,21.86 -124.09,-26.77 -126.9,-29.53"
         style="fill:#9969d2;fill-opacity:1;fill-rule:nonzero;stroke:none"
         transform="matrix(0.13333333,0,0,-0.13333333,0,793.70667)" />
      <path
         id="path32"
         d="m 2035.12,4437.13 c -23.61,-28.14 -60.84,-137.99 -60.84,-158.87 0,-17.39 -3.35,-163.56 12.72,-146.17 22.35,24.18 35.35,77.76 38.13,127.11 4.12,72.91 3.63,115.3 9.99,177.93"
         style="fill:#9969d2;fill-opacity:1;fill-rule:nonzero;stroke:none"
         transform="matrix(0.13333333,0,0,-0.13333333,0,793.70667)" />
      <path
         id="path33"
         d="m 1291.81,4032.05 c 0,0 6.52,-69.54 -2.17,-78.24 -8.69,-8.7 -67.37,41.29 -71.72,54.33 -4.35,13.03 -33.4,125.69 -16.02,103.98 17.39,-21.74 31.23,-58.36 89.91,-80.07"
         style="fill:#9969d2;fill-opacity:1;fill-rule:nonzero;stroke:none"
         transform="matrix(0.13333333,0,0,-0.13333333,0,793.70667)" />
      <path
         id="path34"
         d="m 1282.71,4162.57 c 2.19,-17.39 10.89,-73.87 0,-76.04 -10.85,-2.18 -65.21,75.39 -71.72,92.76 -6.53,17.39 -2.89,31.58 3.62,27.23 6.53,-4.34 65.93,-26.57 68.1,-43.95"
         style="fill:#9969d2;fill-opacity:1;fill-rule:nonzero;stroke:none"
         transform="matrix(0.13333333,0,0,-0.13333333,0,793.70667)" />
      <path
         id="path35"
         d="m 1298.13,4267.36 c 5.83,-11.68 17.19,-70.02 -8.88,-65.67 -26.07,4.35 -82.34,66.76 -79.19,86.55 3.64,22.71 83.73,-12.19 88.07,-20.88"
         style="fill:#9969d2;fill-opacity:1;fill-rule:nonzero;stroke:none"
         transform="matrix(0.13333333,0,0,-0.13333333,0,793.70667)" />
      <path
         id="path36"
         d="m 1334.23,4352.22 c 12.55,-12.32 -11.04,-56.52 -25.28,-52.28 -12.62,3.74 -107.95,56.39 -101.6,81.81 5.46,21.86 124.06,-26.77 126.88,-29.53"
         style="fill:#9969d2;fill-opacity:1;fill-rule:nonzero;stroke:none"
         transform="matrix(0.13333333,0,0,-0.13333333,0,793.70667)" />
      <path
         id="path37"
         d="m 1124.73,4437.13 c 23.59,-28.14 60.82,-137.99 60.82,-158.87 0,-17.39 3.36,-163.56 -12.7,-146.17 -22.36,24.18 -35.37,77.76 -38.14,127.11 -4.12,72.91 -3.64,115.3 -9.98,177.93"
         style="fill:#9969d2;fill-opacity:1;fill-rule:nonzero;stroke:none"
         transform="matrix(0.13333333,0,0,-0.13333333,0,793.70667)" />
      <path
         id="path71"
         d="m 1319.79,3843.17 c 1.54,-26.01 13.6,-288.99 18.73,-310.71 5.11,-21.75 -5.13,-36.94 -17.04,-34.77 -11.92,2.17 -70.96,16.9 -74.38,40.81 -3.4,23.88 3.75,170.39 3.75,198.65 0,28.25 -1.7,165.06 6.81,171.59 8.53,6.52 60.41,-37.33 62.13,-65.57"
         style="fill:#9969d2;fill-opacity:1;fill-rule:nonzero;stroke:none"
         transform="matrix(0.13333333,0,0,-0.13333333,0,793.70667)" />
    </g>
  </g>
</svg>
